<svg width="1065" height="322" viewBox="0 0 1065 322" fill="none" xmlns="http://www.w3.org/2000/svg">
<path d="M651.525 158.96C653.605 158.96 655.205 160 656.325 162.08C657.605 164 658.245 166.48 658.245 169.52C658.245 173.2 657.685 176.08 656.565 178.16C655.445 180.24 653.685 182.08 651.285 183.68C641.845 189.92 626.805 200.16 606.165 214.4C599.925 247.52 591.845 273.6 581.925 292.64C572.005 311.68 559.445 321.2 544.245 321.2C536.085 321.2 529.445 318.64 524.325 313.52C519.205 308.56 516.645 302 516.645 293.84C516.645 286.32 518.325 278.72 521.685 271.04C525.045 263.36 531.285 254.48 540.405 244.4C549.685 234.32 562.725 222.8 579.525 209.84L580.245 205.28C567.605 210.56 555.205 213.2 543.045 213.2C525.125 213.2 509.365 209.76 495.765 202.88C482.165 195.84 471.605 185.92 464.085 173.12C456.565 160.32 452.805 145.44 452.805 128.48C452.805 104.8 457.285 83.92 466.245 65.84C475.205 47.6 487.525 33.52 503.205 23.6C519.045 13.52 536.725 8.47999 556.245 8.47999C574.965 8.47999 588.965 12.88 598.245 21.68C607.685 30.32 612.405 41.84 612.405 56.24C612.405 65.68 610.645 73.28 607.125 79.04C603.765 84.64 598.885 87.44 592.485 87.44C588.165 87.44 584.645 86.4 581.925 84.32C579.365 82.24 578.085 79.36 578.085 75.68C578.085 74.08 578.405 71.36 579.045 67.52C580.005 63.04 580.485 59.52 580.485 56.96C580.485 50.24 578.405 45.04 574.245 41.36C570.245 37.68 563.445 35.84 553.845 35.84C542.165 35.84 531.285 39.2 521.205 45.92C511.285 52.64 503.285 62.72 497.205 76.16C491.125 89.44 488.085 105.44 488.085 124.16C488.085 143.36 493.285 158.24 503.685 168.8C514.245 179.2 529.445 184.4 549.285 184.4C560.325 184.4 571.845 181.92 583.845 176.96L587.205 147.68H562.725C558.245 147.68 554.805 146.64 552.405 144.56C550.005 142.32 548.805 138.72 548.805 133.76C548.805 129.28 550.005 125.76 552.405 123.2C554.805 120.64 558.005 119.36 562.005 119.36H606.885C610.405 119.36 613.285 120.56 615.525 122.96C617.925 125.2 618.885 128.48 618.405 132.8C617.925 137.92 616.325 149.52 613.605 167.6L610.965 185.84C623.765 176.24 635.445 167.92 646.005 160.88C648.085 159.6 649.925 158.96 651.525 158.96ZM546.885 297.92C551.045 297.92 555.605 293.2 560.565 283.76C565.525 274.32 570.165 259.12 574.485 238.16C562.325 248.56 553.525 257.92 548.085 266.24C542.805 274.72 540.165 282.16 540.165 288.56C540.165 294.8 542.405 297.92 546.885 297.92ZM657.958 213.2C651.878 213.2 647.558 210 644.998 203.6C642.598 197.2 641.398 186.96 641.398 172.88C641.398 152.08 644.358 132.32 650.278 113.6C651.718 108.96 654.038 105.6 657.238 103.52C660.598 101.28 665.238 100.16 671.158 100.16C674.358 100.16 676.598 100.56 677.878 101.36C679.158 102.16 679.798 103.68 679.798 105.92C679.798 108.48 678.598 114.24 676.198 123.2C674.598 129.6 673.318 135.2 672.358 140C671.398 144.8 670.598 150.72 669.958 157.76C675.238 144 681.158 132.8 687.718 124.16C694.278 115.52 700.678 109.36 706.918 105.68C713.318 102 719.158 100.16 724.438 100.16C734.838 100.16 740.038 105.36 740.038 115.76C740.038 117.84 739.318 122.88 737.878 130.88C736.598 137.28 735.958 141.28 735.958 142.88C735.958 148.48 737.958 151.28 741.958 151.28C746.438 151.28 752.198 147.76 759.238 140.72C761.318 138.64 763.478 137.6 765.718 137.6C767.798 137.6 769.398 138.56 770.518 140.48C771.798 142.24 772.438 144.64 772.438 147.68C772.438 153.6 770.838 158.24 767.638 161.6C763.158 166.24 757.878 170.24 751.798 173.6C745.878 176.8 739.558 178.4 732.838 178.4C724.358 178.4 717.878 176.24 713.398 171.92C709.078 167.6 706.918 161.76 706.918 154.4C706.918 152 707.158 149.6 707.638 147.2C707.958 144 708.118 141.84 708.118 140.72C708.118 138.16 707.238 136.88 705.478 136.88C703.078 136.88 699.878 139.6 695.878 145.04C692.038 150.32 688.198 157.36 684.358 166.16C680.518 174.96 677.398 184.24 674.998 194C673.238 201.52 671.158 206.64 668.758 209.36C666.518 211.92 662.918 213.2 657.958 213.2ZM872.537 138.32C874.617 138.32 876.217 139.36 877.337 141.44C878.457 143.52 879.017 146.16 879.017 149.36C879.017 157.04 876.697 161.6 872.057 163.04C862.457 166.4 851.897 168.32 840.377 168.8C837.337 182.24 831.337 193.04 822.377 201.2C813.417 209.2 803.257 213.2 791.897 213.2C782.297 213.2 774.057 210.88 767.177 206.24C760.457 201.6 755.337 195.44 751.817 187.76C748.297 180.08 746.537 171.76 746.537 162.8C746.537 150.64 748.857 139.84 753.497 130.4C758.137 120.8 764.537 113.36 772.697 108.08C780.857 102.64 789.897 99.92 799.817 99.92C811.977 99.92 821.737 104.16 829.097 112.64C836.617 120.96 841.017 131.28 842.297 143.6C849.817 143.12 858.777 141.52 869.177 138.8C870.457 138.48 871.577 138.32 872.537 138.32ZM793.817 187.76C798.937 187.76 803.337 185.68 807.017 181.52C810.857 177.36 813.417 171.36 814.697 163.52C809.737 160.16 805.897 155.76 803.177 150.32C800.617 144.88 799.337 139.12 799.337 133.04C799.337 130.48 799.577 127.92 800.057 125.36H798.857C792.457 125.36 787.097 128.48 782.777 134.72C778.617 140.8 776.537 149.44 776.537 160.64C776.537 169.44 778.217 176.16 781.577 180.8C785.097 185.44 789.177 187.76 793.817 187.76ZM981.298 158.96C983.378 158.96 984.978 160 986.098 162.08C987.378 164 988.018 166.48 988.018 169.52C988.018 173.2 987.458 176.08 986.338 178.16C985.218 180.24 983.458 182.08 981.058 183.68C967.298 192.96 957.218 199.84 950.818 204.32L935.458 214.64C929.378 247.76 921.378 273.76 911.458 292.64C901.698 311.68 889.218 321.2 874.018 321.2C865.858 321.2 859.218 318.64 854.098 313.52C848.978 308.56 846.418 302 846.418 293.84C846.418 282.48 850.898 270.24 859.858 257.12C868.818 244.16 885.618 228.16 910.258 209.12L911.698 199.76C908.978 204.08 905.378 207.44 900.898 209.84C896.578 212.08 892.258 213.2 887.938 213.2C878.018 213.2 870.098 209.6 864.178 202.4C858.258 195.2 855.298 185.76 855.298 174.08C855.298 161.28 858.258 149.2 864.178 137.84C870.098 126.32 877.938 117.12 887.698 110.24C897.618 103.2 908.098 99.68 919.138 99.68C922.658 99.68 924.978 100.4 926.098 101.84C927.378 103.12 928.418 105.52 929.218 109.04C932.258 108.4 935.778 108.08 939.778 108.08C943.778 108.08 946.578 108.72 948.178 110C949.938 111.12 950.818 113.44 950.818 116.96C950.818 118.88 950.738 120.4 950.578 121.52C949.938 126.48 947.938 139.04 944.578 159.2C943.938 163.04 943.218 167.28 942.418 171.92C941.778 176.4 941.058 181.2 940.258 186.32C952.578 176.72 964.418 168.24 975.778 160.88C977.858 159.6 979.698 158.96 981.298 158.96ZM896.578 188.96C900.258 188.96 903.778 186.72 907.138 182.24C910.498 177.76 912.898 171.36 914.338 163.04L922.018 122C915.458 122.16 909.378 124.72 903.778 129.68C898.178 134.48 893.698 140.88 890.338 148.88C886.978 156.88 885.298 165.36 885.298 174.32C885.298 179.28 886.258 182.96 888.178 185.36C890.258 187.76 893.058 188.96 896.578 188.96ZM876.658 297.92C880.658 297.92 885.138 293.12 890.098 283.52C895.218 273.92 900.098 258.64 904.738 237.68C892.418 248.24 883.538 257.76 878.098 266.24C872.658 274.72 869.938 282.16 869.938 288.56C869.938 291.28 870.418 293.52 871.378 295.28C872.498 297.04 874.258 297.92 876.658 297.92ZM995.644 213.2C988.124 213.2 982.044 210.16 977.404 204.08C972.924 197.84 970.684 189.28 970.684 178.4C970.684 166.4 971.484 155.44 973.084 145.52C974.684 135.44 977.324 124.8 981.004 113.6C982.604 108.8 984.844 105.36 987.724 103.28C990.604 101.2 995.164 100.16 1001.4 100.16C1004.92 100.16 1007.32 100.72 1008.6 101.84C1010.04 102.96 1010.76 104.64 1010.76 106.88C1010.76 108.16 1009.88 112.48 1008.12 119.84C1006.52 125.76 1005.24 131.12 1004.28 135.92C1001.08 152.72 999.484 163.92 999.484 169.52C999.484 172.88 999.884 175.28 1000.68 176.72C1001.48 178 1002.76 178.64 1004.52 178.64C1006.92 178.64 1009.96 176.24 1013.64 171.44C1017.32 166.48 1021.16 159.12 1025.16 149.36C1029.32 139.44 1033.24 127.52 1036.92 113.6C1038.2 108.8 1040.12 105.36 1042.68 103.28C1045.4 101.2 1049.4 100.16 1054.68 100.16C1058.2 100.16 1060.68 101.12 1062.12 103.04C1063.72 104.8 1064.52 107.52 1064.52 111.2C1064.52 115.2 1064.2 119.68 1063.56 124.64C1062.92 129.44 1062.2 134.4 1061.4 139.52C1059.8 149.76 1058.52 159.12 1057.56 167.6C1056.6 175.92 1056.12 185.44 1056.12 196.16C1056.12 202.24 1054.84 206.64 1052.28 209.36C1049.88 211.92 1045.88 213.2 1040.28 213.2C1034.36 213.2 1030.2 211.68 1027.8 208.64C1025.56 205.44 1024.44 199.36 1024.44 190.4C1024.44 188.64 1024.6 184.72 1024.92 178.64C1022.2 189.84 1018.12 198.4 1012.68 204.32C1007.4 210.24 1001.72 213.2 995.644 213.2Z" fill="#162C4D"/>
<path d="M0 116.667C0 52.2334 52.2334 0 116.667 0L214.5 0C289.335 0 350 60.6654 350 135.5V135.5C350 210.335 289.335 271 214.5 271H6.86272C3.07253 271 0 267.927 0 264.137L0 116.667Z" fill="url(#paint0_linear_0_1)"/>
<rect x="57" y="106" width="59.5951" height="59.5959" rx="29.7975" fill="white"/>
<rect x="233.405" y="106" width="59.5951" height="59.5959" rx="29.7975" fill="white"/>
<rect x="145.197" y="106" width="59.5951" height="59.5959" rx="29.7975" fill="white"/>
<defs>
<linearGradient id="paint0_linear_0_1" x1="323.4" y1="197.288" x2="65.0795" y2="10.2089" gradientUnits="userSpaceOnUse">
<stop stop-color="#724FF9"/>
<stop offset="1" stop-color="#B9A7FF"/>
</linearGradient>
</defs>
</svg>
